<svg width="37" height="47" viewBox="0 0 37 47" fill="none" xmlns="http://www.w3.org/2000/svg">
<path d="M15.3325 26.4838C15.2611 26.6674 15.1672 26.826 15.051 26.9585C14.9359 27.093 14.7951 27.1973 14.6288 27.2724C14.4624 27.3476 14.2587 27.3841 14.021 27.3841C13.6872 27.3841 13.411 27.3131 13.1892 27.1723C12.9674 27.0294 12.7904 26.8427 12.6582 26.608C12.526 26.3754 12.43 26.1104 12.3703 25.8194C12.3095 25.5283 12.2807 25.2311 12.2807 24.9306C12.2807 24.6292 12.3095 24.334 12.3703 24.0409C12.43 23.7477 12.526 23.4849 12.6582 23.2523C12.7904 23.0175 12.9674 22.8308 13.1892 22.6879C13.411 22.545 13.6883 22.4762 14.021 22.4762C14.3099 22.4762 14.5477 22.5294 14.7311 22.6368C14.9145 22.7463 15.0617 22.8715 15.1726 23.0134C15.2835 23.1563 15.3602 23.2981 15.4029 23.4452C15.4456 23.5902 15.4754 23.706 15.4925 23.7895H18.2308C18.1113 22.6629 17.7083 21.7929 17.0205 21.1796C16.3338 20.5662 15.3592 20.2543 14.0977 20.246C13.3897 20.246 12.751 20.3576 12.1848 20.5839C11.6175 20.8082 11.1312 21.1264 10.726 21.5353C10.3208 21.9442 10.0095 22.4355 9.79196 23.0123C9.57443 23.5871 9.4646 24.2276 9.4646 24.9275C9.4646 25.5857 9.56803 26.2032 9.7717 26.7738C9.97643 27.3465 10.2782 27.8389 10.6749 28.2572C11.0715 28.6755 11.5546 29.0051 12.1261 29.2471C12.6977 29.487 13.3545 29.6101 14.0977 29.6101C14.7631 29.6101 15.356 29.5006 15.8763 29.2846C16.3956 29.0666 16.8328 28.7818 17.1868 28.4272C17.5409 28.0725 17.8096 27.673 17.993 27.2318C18.1764 26.7916 18.2691 26.343 18.2691 25.8934H15.5042C15.4626 26.1021 15.4061 26.3013 15.3325 26.4838Z" fill="white"/>
<path d="M22.8629 25.882H22.8373L21.3402 20.4619H18.4995L21.225 29.3994H24.3728L27.2273 20.4619H24.3344L22.8629 25.882Z" fill="white"/>
<path d="M30.1255 0H0V47H37V6.52056L30.1255 0ZM33.8011 43.8696H3.19894V3.12937H28.477V8.09464H33.8L33.8011 43.8696Z" fill="white"/>
</svg>
