<svg width="47" height="47" viewBox="0 0 47 47" fill="none" xmlns="http://www.w3.org/2000/svg">
<g clip-path="url(#clip0_57_26)">
<path d="M0 0V47H47V0H0ZM35.5438 25.5562C35.4152 26.6027 35.1949 27.6768 34.8186 28.659C33.717 31.4771 31.5139 33.0285 28.5947 33.4967C26.924 33.7629 25.2074 33.7721 23.3531 33.9098C21.6916 33.7629 19.8648 33.7445 18.0932 33.4324C14.66 32.8266 12.3283 30.4215 11.649 26.9791C11.3002 25.2258 11.1992 23.4633 11.7408 21.7191C12.0254 20.8195 12.4936 20.0209 13.0994 19.2957C13.182 19.2039 13.2555 19.0662 13.2463 18.9469C13.1453 17.368 13.3289 15.8074 13.7971 14.302C14.1826 13.0443 13.898 13.1178 15.2934 13.485C16.9732 13.9256 18.442 14.8344 19.8832 15.7799C20.0484 15.89 20.3055 15.9359 20.5074 15.8992C22.5453 15.5871 24.574 15.5688 26.6119 15.9268C26.7588 15.9543 26.9516 15.8992 27.0893 15.8166C28.3285 15.0088 29.6045 14.2836 30.9998 13.7787C31.5047 13.5951 32.0371 13.4758 32.5512 13.3197C32.7807 13.2555 32.8816 13.3381 32.9643 13.5584C33.5885 15.3025 33.8455 17.0926 33.7537 18.9377C33.7445 19.0387 33.7996 19.1764 33.8639 19.259C35.4336 21.0766 35.8283 23.243 35.5438 25.5562Z" fill="white"/>
<path d="M29.3842 23.2613C28.5948 23.1236 27.7686 23.142 26.9608 23.1879C25.1248 23.2888 23.2889 23.4633 21.453 23.298C20.5809 23.2154 19.6996 23.1328 18.8184 23.1511C17.2211 23.1787 15.8809 23.7019 15.0914 25.2258C14.6967 25.9785 14.6049 26.7863 14.6324 27.6217C14.6967 29.9717 15.7156 31.3119 17.9555 31.982C19.7547 32.5144 21.5998 32.5879 23.4541 32.5511C24.1426 32.5511 24.8311 32.5879 25.5196 32.542C26.9424 32.4593 28.3377 32.2482 29.6871 31.7525C31.0824 31.2384 31.9178 30.2562 32.2207 28.8334C32.3401 28.2826 32.3951 27.7043 32.386 27.1443C32.3676 25.2441 31.0824 23.5459 29.3842 23.2613ZM20.3514 29.4759C19.7547 30.1277 18.8918 30.1369 18.2768 29.5035C17.827 29.0445 17.5699 28.3377 17.5699 27.4564C17.5883 26.8597 17.7627 26.208 18.2768 25.6847C18.8918 25.0513 19.7547 25.0605 20.3514 25.7031C21.251 26.6761 21.251 28.5029 20.3514 29.4759ZM28.6957 29.5218C28.1358 30.1002 27.328 30.1185 26.7313 29.5861C25.7031 28.6498 25.7031 26.566 26.7313 25.6205C27.3188 25.0789 28.1266 25.0972 28.6957 25.6756C29.219 26.208 29.3934 26.8781 29.4209 27.5941C29.3934 28.3193 29.2098 28.9802 28.6957 29.5218Z" fill="white"/>
</g>
<defs>
<clipPath id="clip0_57_26">
<rect width="47" height="47" rx="10" fill="white"/>
</clipPath>
</defs>
</svg>
