<svg width="47" height="47" viewBox="0 0 47 47" fill="none" xmlns="http://www.w3.org/2000/svg">
<g clip-path="url(#clip0_57_20)">
<path d="M0 0V47H47V0H0ZM16.9273 33.3314H12.3467V18.6715H16.9273V33.3314ZM14.5131 16.8355H14.4764C12.8148 16.8355 11.7408 15.7156 11.7408 14.2928C11.7408 12.8424 12.8516 11.75 14.5406 11.75C16.2297 11.75 17.267 12.8424 17.3037 14.2928C17.3129 15.7064 16.2389 16.8355 14.5131 16.8355ZM35.25 33.3314H30.0543V25.749C30.0543 23.7662 29.2465 22.4076 27.4564 22.4076C26.0887 22.4076 25.3268 23.3256 24.9779 24.2068C24.8494 24.5189 24.8678 24.9596 24.8678 25.4094V33.3314H19.718C19.718 33.3314 19.7822 19.8924 19.718 18.6715H24.8678V20.9756C25.1707 19.9658 26.8139 18.5338 29.4393 18.5338C32.698 18.5338 35.25 20.6451 35.25 25.1799V33.3314Z" fill="white"/>
</g>
<defs>
<clipPath id="clip0_57_20">
<rect width="47" height="47" rx="10" fill="white"/>
</clipPath>
</defs>
</svg>
