<?xml version="1.0" encoding="UTF-8"?><svg id="b" xmlns="http://www.w3.org/2000/svg" width="2641.24" height="485.35" viewBox="0 0 2641.24 485.35"><defs><style>.e{fill:#1392e5;}.f{fill:none;stroke:#1392e5;stroke-miterlimit:10;stroke-width:2px;}</style></defs><g id="c"><rect class="f" x="87.53" y="2.84" width="200.3" height="123.21"/><rect class="f" x="48.82" y="167.38" width="31.75" height="85.25"/><path class="e" d="M56.64,252.63v115.5H2.01v-115.5h54.63M58.64,250.63H0v119.5h58.63v-119.5h0Z"/><path class="e" d="M108,375.55v77.58H31.25v-77.58h76.75M110,373.55H29.25v81.58h80.75v-81.58h0Z"/><path class="e" d="M222.44,254.52v115.81h-61.25v-115.81h61.25M224.44,252.52h-65.25v119.81h65.25v-119.81h0Z"/><path class="e" d="M375.84,185.21v168h-226.45v-168h226.45M377.84,183.21h-230.45v172h230.45v-172h0Z"/><path class="e" d="M421.59,365.6v117.75h-70v-117.75h70M423.59,363.6h-74v121.75h74v-121.75h0Z"/><path class="e" d="M438.83,96.44v44h-43.25v-44h43.25M440.83,94.44h-47.25v48h47.25v-48h0Z"/><path class="e" d="M569.76,135.53v114.49h-153.6v-114.49h153.6M571.76,133.53h-157.6v118.49h157.6v-118.49h0Z"/><path class="e" d="M521.86,310.59v63.99h-44.5v-63.99h44.5M523.86,308.59h-48.5v67.99h48.5v-67.99h0Z"/><path class="e" d="M724.09,242.34v148.75h-205v-148.75h205M726.09,240.34h-209v152.75h209v-152.75h0Z"/><path class="e" d="M708.31,55.08v278h-110.72V55.08h110.72M710.31,53.08h-114.72v282h114.72V53.08h0Z"/><path class="e" d="M847.59,160.28v72h-82v-72h82M849.59,158.28h-86v76h86v-76h0Z"/><path class="e" d="M850.16,240.14v230.25h-113.51v-230.25h113.51M852.16,238.14h-117.51v234.25h117.51v-234.25h0Z"/><path class="e" d="M1033.66,90.11v217h-257V90.11h257M1035.66,88.11h-261v221h261V88.11h0Z"/><path class="e" d="M1113.49,374.86v39.75h-135.75v-39.75h135.75M1115.49,372.86h-139.75v43.75h139.75v-43.75h0Z"/><path class="e" d="M1328.13,170.48v176.97h-213.5v-176.97h213.5M1330.13,168.48h-217.5v180.97h217.5v-180.97h0Z"/><path class="e" d="M1314.13,2.04v271.25h-136V2.04h136M1316.13.04h-140v275.25h140V.04h0Z"/><path class="e" d="M1382.31,273.56v54h-26v-54h26M1384.31,271.56h-30v58h30v-58h0Z"/><path class="e" d="M1398.02,373.64v85.44h-87.5v-85.44h87.5M1400.02,371.64h-91.5v89.44h91.5v-89.44h0Z"/><path class="e" d="M1483.27,112.3v73.25h-44.5v-73.25h44.5M1485.27,110.3h-48.5v77.25h48.5v-77.25h0Z"/><path class="e" d="M1502.84,20.93v87.5h-90.5V20.93h90.5M1504.84,18.93h-94.5v91.5h94.5V18.93h0Z"/><path class="e" d="M1742.73,79.89v277.65h-165.43V79.89h165.43M1744.73,77.89h-169.43v281.65h169.43V77.89h0Z"/><path class="e" d="M1906.97,123.19v200.93h-132.33V123.19h132.33M1908.97,121.19h-136.33v204.93h136.33V121.19h0Z"/><path class="e" d="M1906.63,111.3v82.81h-13.49v-82.81h13.49M1908.63,109.3h-17.49v86.81h17.49v-86.81h0Z"/><path class="e" d="M2024.07,2.29v106.5h-117.75V2.29h117.75M2026.07.29h-121.75v110.5h121.75V.29h0Z"/><path class="e" d="M2088.71,215.65v150h-126.33v-150h126.33M2090.71,213.65h-130.33v154h130.33v-154h0Z"/><path class="e" d="M2189.69,112.12v127.5h-76.25v-127.5h76.25M2191.69,110.12h-80.25v131.5h80.25V110.12h0Z"/><path class="e" d="M2347.38,175.41v174.5h-115.5v-174.5h115.5M2349.38,173.41h-119.5v178.5h119.5v-178.5h0Z"/><path class="e" d="M2513.63,50.79v106.5h-148V50.79h148M2515.63,48.79h-152v110.5h152V48.79h0Z"/><path class="e" d="M2631.04,167.62v178.78h-236.6v-178.78h236.6M2633.04,165.62h-240.6v182.78h240.6v-182.78h0Z"/><path class="e" d="M2639.13,259.4v68.35h-70.75v-68.35h70.75M2641.13,257.4h-74.75v72.35h74.75v-72.35h0Z"/><path class="e" d="M2629.83,80.12v87.5h-84.75v-87.5h84.75M2631.83,78.12h-88.75v91.5h88.75v-91.5h0Z"/><path class="e" d="M2506.99,364.72v110h-111v-110h111M2508.99,362.72h-115v114h115v-114h0Z"/><path class="e" d="M2277.63,46.85v63h-91.5v-63h91.5M2279.63,44.85h-95.5v67h95.5V44.85h0Z"/><path class="e" d="M2203.37,374.44v43h-69.5v-43h69.5M2205.37,372.44h-73.5v47h73.5v-47h0Z"/><path class="e" d="M1995.48,372.52v84.5h-130.25v-84.5h130.25M1997.48,370.52h-134.25v88.5h134.25v-88.5h0Z"/><path class="e" d="M1691.41,60.85v50.45h-29.75v-50.45h29.75M1693.41,58.85h-33.75v54.45h33.75v-54.45h0Z"/><path class="e" d="M1554.12,200.85v81h-47.78v-81h47.78M1556.12,198.85h-51.78v85h51.78v-85h0Z"/><path class="e" d="M1655.12,306.95v149h-106v-149h106M1657.12,304.95h-110v153h110v-153h0Z"/><path class="e" d="M1074.49,134.78v201h-60.75v-201h60.75M1076.49,132.78h-64.75v205h64.75v-205h0Z"/><path class="e" d="M662.82,18.83v140h-114V18.83h114M664.82,16.83h-118v144h118V16.83h0Z"/></g></svg>