<?xml version="1.0" encoding="UTF-8"?><svg id="a" xmlns="http://www.w3.org/2000/svg" width="2641.24" height="485.35" viewBox="0 0 2641.24 485.35"><defs><style>.g,.h,.i,.j{fill:none;stroke-miterlimit:10;stroke-width:1.2px;}.g,.i{stroke:#050505;}.h{stroke:#000;}.i{stroke-linecap:round;}.j{stroke:#0f0e0e;}</style></defs><g id="b"><g id="c"><path d="M187.82,107.28H54.7l-.38,3.08c36.17,0,33.47,19.62,25.78,66.18l-21.55,130.81c-7.31,45.02-11.54,66.18-47.71,66.18l-.38,3.08h154.28l.38-3.08c-38.47,0-37.71-24.24-30.78-66.18l6.93-43.09h11.16c38.77,0,70.86-6.01,95.12-17.29-.28-.17-.56-.33-.87-.45-.53-.21-41.35-17.17-41.64-17.38-.02-.01-.03-.02-.05-.03-.04-.01-.09-.03-.13-.04-.1-.03-.2-.07-.3-.11-11.62,20.71-29.27,32.23-51.36,32.23h-10.77l25.01-150.82h10.39c23.47,0,42.32,8.08,42.32,45.79,0,29.15-5.18,53.26-14.61,71,.15.06,51.58,14.36,51.58,14.36.21.04.43.09.44.09.07,0,.12.03.18.05,27.52-16.09,42.44-40.31,42.44-71.27,0-51.17-52.33-63.1-112.35-63.1Z"/><path d="M623.49,227.4c.17-2.83.25-5.68.25-8.54,0-69.25-51.94-114.65-122.73-114.65-91.96,0-165.83,73.48-165.83,161.59,0,72.33,56.94,113.89,122.35,113.89,87.3,0,158.09-67.75,165.56-146.99l-24.35-17.11.68-.92,24.07,12.73ZM569.33,192.25l-25.41-.95c-.33-.01-.6.24-.62.57-3.12,69.36-25.19,184.74-85.39,184.74-34.24,0-42.7-31.93-42.7-66.95,0-50.4,15.77-202.38,85.41-202.38,34.24,0,43.09,32.32,43.09,67.72,0,3.98-.07,8.23-.24,12.7-.01.31.22.59.53.62l25.42,2.73c.77.09.68,1.23-.09,1.2Z"/><path d="M666.44,359.84c-6.54,9.21-16.75,13.69-34.62,13.69l-.38,3.08h66.71c-.64-.31-31.64-16.73-31.71-16.77Z"/><path d="M684.92,107.28h-10.78l-.38,3.08c4.41,0,8.27.26,11.63.79l-.47-3.87ZM905.37,304.28h.01c-11.93-38.48-27.32-63.1-102.34-63.1v-.77c47.7-1.93,129.66-15.78,129.66-76.95,0-55.79-85.8-56.18-119.66-56.18h-122.44l1.36,5.45c18.75,6.45,15.36,26.46,9.5,63.81l-20.77,130.81c-3.44,21.14-5.85,37.02-11.47,47.91.07.06,34.7,21.32,34.73,21.35h85.23l.39-3.08c-17.77,0-26.83-5.33-30.68-15.52l-20.31,3.6-.29-1.33,19.34-6.56c-2.46-11.09-.49-26.69,2.7-46.37l10.4-65.79h10.75c35.79,0,35.02,52.33,39.25,78.49,6.93,42.32,23.09,60.41,65.41,60.41,19.23,0,45.4-4.24,62.71-8.85l.39-3.08c-19.63,1.92-27.71-12.31-43.87-64.25ZM781.87,238.48h-10.65l20.27-128.12h11.54c33.86,0,45.79,18.47,45.79,44.63,0,52.71-24.63,83.49-66.95,83.49Z"/><path d="M994.26,107.28l-1.81,6.72,11.25-6.72h-9.44ZM1231.39,137.29l-15.07-30.01h-206.19l-19.7,14.2-22.72,84.3h3.08c15.39-56.94,48.09-95.42,108.11-95.42l-32.32,196.99c-7.31,45.02-15,66.18-52.32,66.18l-.39,3.08h159.29l.38-3.08c-37.32,0-38.09-21.16-30.78-66.18l32.32-196.99c59.64,0,80.03,37.32,76.95,95.42h3.08l3.63-54.62-7.35-13.87ZM1225.75,107.28l6.86,12.1,7.46,11.68,1.58-23.78h-15.9Z"/><path d="M1282.44,107.28l-.39,3.08c36.17,0,33.47,19.62,25.78,66.18l-19.86,121.63,38.74,8.22.04,1.16-39.49-5.16-.98,4.96c-7.31,45.02-11.54,66.18-47.71,66.18l-.38,3.08h154.28l.39-3.08c-38.48,0-37.71-24.24-30.78-66.18l10.77-66.94c48.86,0,65.79,23.85,57.71,61.17h3.47l26.54-124.27h-3.07c-8.47,39.63-33.86,60.02-83.88,60.02l21.55-126.97h29.24c51.17,0,83.87,30.4,80.8,89.65h3.07l6.16-92.73h-232Z"/><path d="M1704.89,104.21c-35.86,0-68.96,11.17-96.01,30.02l16.2,22.81,14.91,18.73c13-38.1,33.37-68.49,64.51-68.49,34.25,0,43.1,32.32,43.1,67.72,0,65.41-20.4,201.61-85.8,201.61-34.25,0-42.71-31.93-42.71-66.95,0-25.37,4-76.47,16.85-120.97l-20.03-29.82-12.15-20.93c-39.41,29.76-64.7,76.3-64.7,127.86,0,72.33,56.94,113.89,122.35,113.89,92.34,0,166.21-75.8,166.21-160.83,0-69.25-51.94-114.65-122.73-114.65Z"/><path d="M2112.72,255.8c-25.01,64.64-77.33,117.73-134.66,117.73-29.24,0-27.32-13.08-21.54-47.32l15.44-93.84-9.01-15.04.77-1.17,9.07,11.14,8.35-50.76c8.46-51.56,11.93-66.18,58.48-66.18l.39-3.08h-160.44l-.39,3.08c36.17,0,33.47,19.62,25.78,66.18l-18.71,113.56,20.9,32.26-.71,1.83-1.18-.22-20.74-23.36-1.11,6.74c-7.31,45.02-11.54,66.18-47.71,66.18l-.38,3.08h237.39l43.09-120.81h-3.08Z"/><path d="M2161.97,107.28l-.39,3.08c36.17,0,33.48,19.62,25.78,66.18l-21.54,130.81c-7.31,45.02-11.55,66.18-47.71,66.18l-.39,3.08h149.29l.77-3.08c-36.94,0-33.48-21.16-26.17-66.18l21.55-130.81c7.69-46.56,11.54-66.18,48.09-66.18l.39-3.08h-149.67Z"/><path d="M2607.9,218.86c0-69.25-51.95-114.65-122.74-114.65-90.54,0-163.55,71.23-165.78,157.52l26.42-2.97c.74-.09.55.87.84,1.54l-27.25,10.01c2.32,69.54,58.25,109.38,122.28,109.38,85.58,0,155.3-65.1,165.05-142.32l-47.91,3.51-36.61,3.25c-9.8,63.39-33.55,132.48-80.14,132.48-34.25,0-42.71-31.93-42.71-66.95,0-50.4,15.78-202.38,85.42-202.38,34.24,0,43.09,32.32,43.09,67.72,0,16.95-1.37,38.65-4.54,61.5l42.05-2.03,41.77-.85v.06c.5-4.9.75-9.84.75-14.82Z"/></g><g id="d"><path class="g" d="M1541.13,274.66c-3.88,13.9,18.72,73.95,29.42,83.63,10.83,9.79,23.38,17.67,36.9,23.16.43,9.38,13.22,15.46,20.77,9.88-4.71,21.19-10.56,42.13-17.49,62.71-.34,1.02,1.09,1.63,1.6.69,14.19-26.35,27.59-49.23,42-76.55"/><path class="g" d="M400.68,358.99l-48.23,122.47c-.36.92.96,1.52,1.42.65,21.56-41.34,44.51-82.26,75.43-117.06"/><path class="g" d="M87.53,107.78c7.8-6.25,21.81-17.37,25.05-19.97.39-.31.95-.2,1.19.23l3.89,6.85c.28.48.93.54,1.3.13,3.1-3.41,9.25-3.59,12.5-.31.34.34.88.3,1.18-.07,9.51-11.58,26.32-5.36,33.96,7.48,1.41,2.38,44.35-83.52,51.57-98.35.38-.78,1.55-.36,1.37.48l-40,92.88c0,.25,44.4,4.09,44.4,4.09.28.58,1.09.61,1.41.06l11.28-19.22c.3-.51,1.05-.53,1.37-.02l15.61,24.62c.26.4.8.49,1.17.2l31.03-34.28c.76-.6,1.74.41,1.1,1.15-12.34,14.22-23.12,34.45-26.89,39.4-.31.4,13.64,1.07,13.64,1.07.01.01,1.49,5.19,3.35,11.84"/><path class="g" d="M352.36,195.96c-6.27,5.4-12.38,11.74-17.42,18.34-.63.82-1.48,1.46-2.46,1.74-.42.12-.64.56-.47.97,1.95,4.73,1.02,10.56-2.38,14.4-3.27,3.7-8.65,5.34-13.44,4.25-.47-.11-.82.41-.53.79l16.61,22.25c1.5.59,2.4,1.36,2.99,2.22.63.91.92,1.92,1.21,2.93-.43-.12-.85-.24-1.28-.36-25.86-7.3-51.63-14.58-77.42-21.86-17.36-4.91-34.72-9.81-52.12-14.72-18.27-5.16-36.58-10.34-54.97-15.53-3.1-.88-6.2-1.75-9.31-2.63,3.11.88,6.21,1.78,9.3,2.7,18.2,5.38,36.08,11.37,53.67,17.88,3.54,1.3,7.07,2.63,10.58,3.97,38.92,14.92,76.4,32.21,112.7,50.66-1.83.25-18.14,12.51-30.22,13.64-.78.07-.76,1.22.02,1.27,14.86.98,35.45,4.06,38.71,9.71-2.2.38-6.57,16.69-9.42,21.83-.31.55.16,1.21.79,1.1,26.47-4.65,28.45,20.62,48.34,20.87"/><path class="g" d="M549.31,120.97l2.4-38.36c.04-.61.92-.66,1.02-.06,1.44,8.7,4.66,27.25,6.58,30.74,12.5-6.97,25.6,23.42,33.23,13.47,23.9-34.22,45.14-72.42,68.74-107.1.38-.56,1.25-.05.94.56-25.04,49.99-49.81,91.73-70.04,132.71,4.85-5.89,31.39-26.88,39.31-33.09.28-.22.64.15.41.42-7.21,8.61-33.46,40.25-35.63,46.89l-46.95-46.18Z"/><path class="g" d="M520.84,366.62c10.64,1.19,22.26-3.79,22.26-3.79,9.68,3.7,25.17-7.51,23.04-17.65-.02-.09-.03-.14-.03-.14l14.04,6.87-.43-3.19c-.43-3.1,1.54-6.34,3.94-9.03,2.68-3.01,4.06-6.87,4.06-10.78,0-2.12-.41-4.26-1.23-6.29,11.01,3.37,53.97,22.33,109.37,52.79.13.07.25.14.39.21.59.33,1.18.65,1.78.99,7.97,4.39,16.18,9.03,24.59,13.88.66.38,1.26-.57.63-.99-8.91-5.95-18.41-12.12-28.06-18.28l-.15-.09c-8.55-5.46-17.22-10.89-25.68-16.15-38.94-24.2-73.55-44.59-73.37-45.23,4.87-3.78,14.69-8.4,16.93-14.15-1.28-6.6,4.88-13.53,11.59-13.05l-6.22-5.79c5.97-6.51,8.2-15.63,5.9-24.16l-3.25-9.48"/><path class="j" d="M679.5,336.69c-7-11.2-6.1-48.35.74-59.65-25.52-22.06-53.96-42.69-81.21-61.15-.61-.42-.04-1.34.61-.98,27.3,15.12,55.38,29.03,84.25,41.11l.21-18.2c0-.47.42-.83.88-.78l3.32.37-6.1-23.97c-.27-1.07-.21-2.21.28-3.2,1.58-3.21,4.44-5.78,7.82-6.95-1-11.51,1.96-23.33,8.13-32.88-12.6-35.97-14.87-75.73-18.31-114.03-.06-.66.92-.79,1.03-.14,6.34,36.61,11.63,74.27,27.14,107.76"/><path class="j" d="M774.04,108.37c48.39-5.26,79.77-1.95,77.71-12.92-.49-2.63,18.83,12.13,31.42,14.07.09.01.17,0,.25-.05,4.03-2.56,10.11-.98,12.39,3.22.05.1.15.17.26.18l6.16.91c.13.02.26-.03.35-.14l6.88-8.89c.55-.71,1.63-.67,2.13.07l22.66,33.84c1.31,1.96,2.82,4.06,5.1,4.64,2.42.62,4.87-.68,7.02-1.93,28.61-16.59,56.87-34.49,85.36-50.39.85-.47,1.58.76.76,1.28-34.23,21.72-67.25,46.94-97.75,75.3-.1.09-.14.23-.1.36,3.33,12.84.76,27.09-6.84,37.97-.09.13-.09.29,0,.42l3.3,4.63c.39.55.07,1.33-.6,1.43-3.06.47-6.12.95-9.18,1.42-.2.03-.34.22-.31.43,5.05,30.89,12.35,61.19,20.85,91.26.24.85-1,1.25-1.3.42-10.47-28.82-21.34-57.46-31.57-86.4-.09-.26-.43-.33-.62-.13-4.28,4.6.02.63-41.68,9.66"/><path class="j" d="M782.15,240.14c28.6,11.62,25.92,36.88,23.13,43.65s-3.62,10.5,1.1,14.9c.17.16,0,.44-.22.36l-11.54-4.43c-.58-.22-1.1.42-.77.95,4.18,6.67,9.81,12.43,16.41,16.74.08.05.1.15.06.23-2.58,4.7-1.04,15.39,1.55,20.88.11.24.02.51-.22.62-18.8,8.93-53.86,20.09-72.87,25.89-1.04.32-.67,1.87.4,1.68,19.6-3.41,55.93-10.44,77.08-18.91.13-.05.27.06.24.2l-.78,4.37c-.12.64.33,1.25.98,1.33l5.8.72.85.98c-.47,39.52-.93,79.04-1.4,118.57-.01,1.01,1.47,1.1,1.58.1,3.49-32.87,9.78-65.44,18.79-97.24-.77,2.03.38,11.9,1.21,18.14.14,1.08,1.68,1.15,1.92.09l4.71-20.22"/><path class="j" d="M1317.84,132.71c-2.4,4.13-5.9,7.62-10.04,10.02-.2.11-.32.32-.33.55l-.5,23.04c-.01.52-.6.83-1.03.54-4.14-2.77-8.09-5.82-11.82-9.12-.6-.53-1.45.28-.94.91l9.42,11.63c.66.82,1.36,1.77,1.19,2.81-.1.61-.72,1.07-1.3,1.15-.4.05-.67.42-.57.81,1.27,5.23-1.48,10.8-3.64,15.89-2.33,5.51-3.7,12.72.69,16.79-51.43-52.95-94.21-129.26-118.64-204.44-.26-.81-1.48-.45-1.26.37,21,80.06,60.46,162.3,112.73,222.72.16.19.2.45.1.68-1.54,3.58-.7,7.75.17,11.59l1.99,8.76c.08.34-.12.68-.45.78-6.88,2.08-14.29,2.37-21.31.87-.7-.15-1.05.82-.41,1.16,6.5,3.49,12.89,2.81,19.53,3.97.41.07.63.5.49.89-.81,2.24-.93,4.72-.32,7.03.07.26-.04.51-.25.67-1.77,1.31-1.94,4.19-.82,6.16,1.19,2.1,3.38,3.41,5.47,4.62"/><path class="j" d="M1143.11,170.48c4.35,4.01,7.58,13.77,6.42,19.57s-3.66,11.33-4.21,17.22c-.44,4.69.78,9.93,3.99,13.13.49.48.05,1.3-.62,1.13l-7.33-1.86c-.61-.16-1.06.54-.68,1.05,5.23,6.88,5.73,17.14.97,24.4-.12.18-.14.41-.06.62l1.95,4.54c.16.36-.03.78-.41.9l-3.02.96c-.33.11-.52.45-.43.79,1.13,4.73-.79,10.05-4.61,13.05-.45.35-.3,1.06.26,1.18l190.74,38.77c1.07.22.8,1.81-.28,1.67l-165.07-22.26c-4.3-.55-8.84-1.06-12.83.62-3.54,1.49-6.36,5.36-5.77,9.01.09.53-.48.93-.96.68l-3.05-1.59c-.43-.22-.95.08-.97.56l-.42,10.38c-.02.48-.52.78-.95.57l-2-.97c-.46-.23-1,.14-.94.65.32,3.18-.59,6.49-2.52,9.04-.16.22-.19.51-.04.74l1.98,3.27c.29.49-.12,1.09-.68.99-3.42-.6-7.2,2.82-8.09,6.51-1.05,4.32.14,8.88-.4,13.3s-4.13,9.21-8.47,8.25"/><path class="g" d="M1043.02,335.32c-5.8-1.29-8.07-8.62-7.13-14.49s3.92-11.33,4.27-17.26c.4-6.84-2.75-13.35-3.73-20.14s1.48-15.24,8.15-16.82c-10.61-4.72-20.65-10.68-29.87-17.73-.5-.38-.07-1.16.52-.94l26.91,10.25c2.91-7.54,5.63-16.66,1.37-23.29-.22-.34.08-.77.47-.69,3.03.61,6.27.18,9.02-1.23-.69-5.94-5.68-11.05-11.52-12.11-.61-.11-.85-.86-.38-1.28l16.72-14.79v-28.25s-2.37-40.26-2.37-40.26c-.05-.85,1.17-1.05,1.39-.23l7.59,27.4c1.15-5.71,4.94-10.84,10.07-13.61"/><path class="g" d="M397.56,140.44c-1.76-1.87-1.41-5.03.15-7.08s3.98-3.21,6.36-4.18,4.86-1.85,6.79-3.54c1.07-.94,1.94-2.1,3.11-2.91s2.83-1.16,3.99-.35l-8.67-24.75c-.16-.45.5-.71.7-.28l11.61,25.79c1.58-3.16,4.25-5.76,7.43-7.28,2.79.96,6.02.58,8.51-1l.26,3.18"/><path class="j" d="M418.39,250.02s7.99-10.99,8.08-11.14c4.83-8.05-1.46-28.56,7.83-28.2,15.46.6-2.25-22.23,3.5-22.23,37.2,0,99.26,2.46,131.32,3.84.82.04.9-1.17.09-1.26l-127.55-13.61c-.4-.04-.66-.44-.53-.82.61-1.88,2.42-6.74,5.18-7.71.38-.13.58-.55.38-.91l-2.69-4.89c-.19-.34-.03-.76.34-.89,2.9-1.03,5.14-5.57,4.56-8.61-.63-3.29-.64-11.14,12.51-27.73"/><path class="g" d="M473.6,374.58c5.63-1.64,9.89-7.16,10.06-13.02.07-2.49-.49-5.18.75-7.34s5.43-2.29,5.59.2l2.74-6.64c.08-.19.28-.29.48-.23l3.51,1c-5.2-12.35-10.69-24.58-16.46-36.67-.25-.52.47-.93.79-.46,6.73,9.79,14.7,18.73,23.67,26.52-.83-2.87.64-6.23,3.3-7.59-1.39-4.41,1.08-9.69,5.35-11.46l-2.23-1.37c-.08-.05-.07-.18.02-.21l14.96-5.94"/><path class="i" d="M65.99,268.21c-.44-8.01,4.21-35.01.67-40.53-4.47-6.99-2.88-5.38,3.52-10.66l-19.12,5.17c-.43.12-.67-.48-.27-.69,7-3.62,21.37-14.77,21.37-14.77l.78-2.28c-6.65-10.92-11.91-22.67-15.63-34.9-.11-.35.4-.54.56-.21,4.19,9.1,7.83,17.59,15.1,23.94,1.48-4.39,4.13-8.37,7.6-11.42"/><path class="g" d="M1032,370.59c-18.64,13.15-36.51,27.4-53.48,42.64-.26.24.03.65.34.48,18.79-10.36,38.31-19.4,58.37-27.04.21-.08.43.1.4.32l-.77,5.31c-.03.22.18.39.39.31,8.55-3.09,19.04.5,23.95,8.14.15.24.51.16.54-.12l1.75-14.09c.03-.22.27-.33.45-.21,15.34,9.88,31.56,18.39,48.41,25.4.33.14.58-.32.29-.52-13.55-9.55-27.22-19.14-43.37-29.64-.22-.14-.16-.48.09-.54l25.02-5.97"/><path class="g" d="M1322.29,375.7c-1.14,27.55-4.83,55-11,81.87-.22.95,1.14,1.37,1.49.46,12.67-32.89,31.49-80.58,30.82-77.58,18.69,1.77,36,10.39,52.48,19.69.92.52,1.82-.74,1.02-1.44-13.68-12.04-29.96-22.1-47.56-31"/><path class="g" d="M1361.56,304.75c8.73-13.61,18.66-30.18,18.66-30.18.49-.74,1.62-.09,1.21.7-11.15,21.81-18.59,39.24-22.72,49.7"/><path class="g" d="M1412.84,108.86c20.57-28.01,37.17-58.63,55.75-86.85.54-.82,1.78-.06,1.3.79-13.53,24.06-24.75,49.42-33.44,75.61,8.04-2.68,14.09-1.35,22.13-4.03.27,4.89,6.88,6.69,11.6,5.37s9.14-4.34,14.03-3.97c8.61.66,16.55,15.61,24.9,13.42"/><path class="g" d="M769.72,230.65c2.74-.93,5.48-1.86,8.23-2.79-2.26-1.02-2.52-4.22-1.68-6.55s2.43-4.44,2.7-6.91c.35-3.12-.97-7.34,1.87-8.68l-3.21-2.54c21.99-11.65,45.02-21.34,68.72-28.95.84-.27.5-1.52-.36-1.32-21.06,4.97-44.02,12.31-65.61,17.95,1.81-6.31,3.62-12.62,5.43-18.93,1.09-3.78,1.66-8.87-1.52-10.77l-5.98-2.33"/><path class="g" d="M1451.64,112.3c-2.42,6.75,2.92,15.07,10.06,15.69,2.52.22,5.31-.32,6.92,2.62,1.13,2.07.94,4.61-.29,6.61-9.54,15.47-19.08,30.95-28.62,46.42-.51.82.68,1.62,1.25.84l44.53-60.43"/><path class="h" d="M1702.55,357.54c-4.97-3.82-7-11.04-4.74-16.89s8.62-9.83,14.87-9.31c.6-13.7,4.09-27.26,10.17-39.55-58.03-63.09-113.74-125.4-144.81-210.26-.33-.9,1-1.44,1.39-.56,34.89,78.21,92.75,131.51,150.1,189.23l3.91-19.75c3.17,1.95,7.93.37,9.3-3.08"/><path class="h" d="M1801.12,297.28c8.47-12.73,22.86-21.33,38.08-22.78l-8.88-10.57,5.63-15.51-4.73,4.32,4.53-19.39c20.24,32.17,43.45,62.47,69.23,90.39.95,1.03,2.55-.23,1.77-1.39-26.9-40.39-51.65-82.21-74.1-125.23,3.8-11.21-7.17-32.22-12.59-47.18-2.44.52-4.89,1.04-7.11,1.42,2.36-2.13,1.81-6.6-1-8.09-2.6-1.38-5.87-.26-8.7-1.1-3.69-1.1-5.53-5.07-7.94-8.07-5.42-6.74-14.53-9.03-22.97-10.92"/><path class="g" d="M35.61,370.33c2.46-11.56,1.22-23.87-3.49-34.71-11.47-26.39-21.26-53.5-29.31-81.13-.3-1.04,1.21-1.57,1.62-.57,11.46,27.56,25.7,53.96,42.44,78.67,3.26-3.82,6.52-7.63,9.77-11.45"/><path class="g" d="M75.39,375.55c-16.39,24.93-30.2,49.14-43.32,75.92-.35.72.68,1.29,1.11.63,17.14-26.16,33.68-46.01,56.56-69.3,3.08,3.95,11.17.89,14.25,4.84.49-3.99,1.66-7.89,3.41-11.5"/><path class="g" d="M159.41,262.72c17.07,4.15,6.7,4.39,16.3,7.95,4.68,1.73,5.66-4,10.54-5,5.93,31.18,8.76,71.76,10.45,103.46.04.8,1.22.78,1.24-.02.46-32.78-.74-66.14-.85-99.12,0,0,3.45-6.84,22.89-6.84,2.28,0,1.71-6.99,1.31-9.24"/><path class="g" d="M1861.92,374.76c12.02,3.41,24.46,5.05,36.85,6.68,15.34,2.02,30.67,4.04,46.01,6.06,13.84,24.15,29.84,47.05,47.76,68.35,1.04,1.24,2.97-.14,2.13-1.53-16.44-27.15-30.84-55.55-43.02-84.86"/><path class="g" d="M1957.9,121.62c-17.6-42.17-36.04-72.37-50.98-117.62-.29-.88,1-1.37,1.36-.52,15.84,37.29,26.64,61.17,50.85,93.66l7.9-3.25c.49-.2,1,.23.88.75l-1.83,7.89c10.83-4.43,21.66-8.85,32.49-13.28.35-.14.68.26.47.58l-7.73,11.41,19.34-5.86c1.14-.35,2.37.38,2.53,1.56.59,4.37,7.16,11.53,10.89,11.59"/><path class="h" d="M2019.78,367.82c1-3.96,2-7.91,3-11.87,9.64-.96,12.24-1.94,17.59-10.01l-77.1-128.38c-.55-.81.64-1.66,1.23-.88,25.03,32.56,46.26,65.42,69.89,98.09,3.43,4.74,7.19,9.74,12.71,11.68,5.52,1.94,13.08-.98,13.6-6.81.27,4.21,6.62,5.32,9.93,2.71s4.52-6.99,6.26-10.84,5.02-7.78,9.23-7.47c1.46,2.34,4.5,3.56,7.17,2.87"/><path class="g" d="M2173.69,109.91c4.88-.56,9.5,2.96,11.78,7.31s2.71,9.41,3.1,14.3c.48,5.93.94,11.96-.35,17.76-.94,4.25-2.81,8.25-3.74,12.5-.97,4.38-.92,8.98.14,13.34l-70.05,20.46c-.87.26-.57,1.56.33,1.41,23.97-4.13,47.77-7.84,71.99-7.54l-4.39.25,5.36,1.12-13.16,10.87c3.97,1.54,5.76,7.03,3.47,10.61-.32,6.82-.64,13.64-.96,20.46-.12,2.5-.2,5.15,1.04,7.32s4.31,3.49,6.32,2.01"/><path class="h" d="M2254.57,172.62c6.79-.33,11.95,6.73,12.55,13.5.59,6.77-1.96,13.35-3.6,19.95-2.7,10.89-2.94,22.38-.69,33.36.05.23-.12.44-.36.45-6.75.39-9.71,9.24-9.29,16.14s1.85,14.24-1.97,19.49c-.21.29.06.69.41.59,30.69-8.39,62.07-14.27,93.72-17.58,1.4-.15,1.85,1.84.53,2.32l-65.62,23.57c-9.25,3.32-18.91,6.91-25.43,14.26-6.23,7.02-8.79,17.14-6.66,26.28.05.2-.07.39-.27.45-6.04,1.8-7.93,11.22-3.11,15.24.19.16.2.44.01.6l-15.56,12.94"/><path class="g" d="M2186.58,109.53c.73-4.05,4.28-7.13,8.17-8.48s8.1-1.29,12.22-1.21c7.51.14,15.02.28,22.52.42.25,0,.48-.09.65-.27,15.5-15.77,28.42-33.82,41.03-52.02.6-.86,1.94-.15,1.56.83-7.17,18.32-16.08,35.95-26.59,52.58l2.45-1.85c.1-.07.21-.13.33-.16,9.65-2.38,20.45.53,27.6,7.43.2.19.3.47.26.75l-.85,7.18"/><path class="g" d="M1554.12,202.9c-2.84-1.84-6.8-1.74-9.55.24s-4.08,5.71-3.23,8.99c2.61,7.6-.39,16.73-6.91,21.39-.32.23-.31.71.03.9,2.14,1.2,3.79,3.26,4.48,5.62.05.17,0,.35-.1.49l-31.65,39.69c-.4.5.25,1.16.75.76,9.51-7.57,18.62-15.64,27.28-24.17.42-.42,1.09.05.86.59-.98,2.35-1.39,4.93-1.15,7.47.03.35.41.57.74.44l1.65-.66c.38-.15.79.16.73.57l-.64,4.48c-.05.34.23.64.58.6,2.27-.25,4.68,1.1,5.56,3.23"/><path class="g" d="M1898.41,111.3l-3.72,3.06c-.61.5-.5,1.45.21,1.8,2.51,1.24,4.43,3.65,5.52,6.28,1.32,3.17,1.62,6.66,1.91,10.09.24,2.81.47,5.67-.16,8.42-1.06,4.63-4.39,8.26-8.13,11.32-.32.26.02.75.37.55,3.74-2.13,7.1-4.94,9.85-8.25-1.37,10.59-2.73,21.19-4.1,31.78-.44,3.44-.88,6.97-.07,10.34s3.17,6.6,6.54,7.42"/><path class="g" d="M1659.49,116.56c9.45-18.52,19.45-36.77,29.96-54.71.44-.75,1.57-.16,1.22.63-6.81,15.29-12.77,30.94-17.86,46.88-.19.61.49,1.15,1.02.8,2.08-1.4,4.84-1.81,7.2-.93"/><path class="g" d="M2133.87,374.74c1.16,4.81,7.5,5.74,12.45,5.66,4.86-.08,9.73-.16,14.59-.24,1.87-.04,3.72-.79,5.09-2.06l-17.46,37.66c-.32.69.66,1.22,1.06.58l20.54-32.4c4.16-1.03,8.31-2.07,12.47-3.1,6.61-1.64,14.16-3.13,19.78.72-.58-3.01-1.16-6.03-1.74-9.04"/><path class="g" d="M2366.35,154.91c1.8-33.76,5.5-68.69,10.52-102.59.16-1.05,1.72-.87,1.65.19-2.03,28.38-2.7,56.87-2.02,85.31,0,0,0,0,0,0,7.05-3.8,13.17-9.32,17.68-15.95,0,0,0,0,0,0,6.27-.09,12.31-3.88,15.25-9.39l1.38-.12c1.21,1.69,3.63,2.53,5.78,2.32,2.7-.26,5.1-1.71,7.5-2.97,13.03-6.85,28.55-8.84,42.89-5.51,0,0,0,0,0,0l-29.33-40.24c-.57-.79.44-1.75,1.2-1.13l45.51,37.39s0,0,0,0c12.15-2.13,25.19,1.55,34.43,9.73"/><path class="g" d="M2397.03,365.94c4.84,35.51,4.7,71.7-.4,107.17-.15,1.04,1.34,1.36,1.64.36l27.02-92.93c.17-.6.91-.81,1.37-.39,9.67,9,27.27,7.31,35.19-3.2.41-.54,1.27-.45,1.49.19.89,2.62,3.42,4.68,6.16,5.42,3.38.92,6.97.25,10.34-.7,12.39-3.51,23.63-10.99,31.66-21.06"/><path class="h" d="M2399.61,346.4c4.07-1.04,7.52-4.24,8.87-8.22s.54-8.62-2.06-11.92l8.48-2.18-5.56-10.02c21.37,6.22,42.36,13.79,62.79,22.63.9.39,1.56-.89.73-1.4-21.19-13.01-43.14-24.77-65.7-35.22,1-5.04,3.88-9.68,7.96-12.81-5.65-3.76-9.84-30.37-4.33-34.34l218.88-17.48c1-.08.97-1.55-.03-1.58-62.86-1.89-214.73,9.27-214.73,9.27,3.23-2.7,1.68-8.98-2.44-9.87,3.85-20.14,7.7-40.28,11.63-60.63-2.79-6.24-6.23-12.18-10.24-17.71"/><path class="g" d="M2599.25,255.56c6.42,9.81,4.14,24.34-4.99,31.7,2.27,1.26,3.44,4.22,2.64,6.7s-3.48,4.19-6.06,3.89c15.74,9.47,31.69,18.14,47.34,27.97.76.48.12,1.64-.69,1.24-16.34-8.09-35.5-16.76-54.38-19.12l-2.16,7.98c-3.79-2.27-9.48,1.47-8.9,5.85-2.43-2.14-5.75-3.24-8.98-2.96"/><path class="g" d="M2546.43,121.34c-2.26-3.51,2.01-8.25,6.18-8.07s7.57,3.26,10.56,6.17c4.2,4.08,8.4,8.15,12.6,12.23l5.52-1.53c4.39-16.1,7.9-32.45,10.51-48.93.11-.67,1.1-.56,1.07.12-1.23,22.96-2.73,45.62-1.24,68.45,12.47-.97,24.79-3.76,36.46-8.24.93-.35,1.6.89.8,1.47l-36.05,26.21,4.06,3.42"/></g></g></svg>